#!OML:ASF I:\Actors\actors\Patient Classification 2\Patient 1\Session 1\actor1.ASF
:FULLY-SPECIFIED
:DEGREES
389
root -0.0290666 18.3777 5.28522 -3.32534 -22.1664 -4.47677
lowerback 13.5245 -1.2805 -2.20721
upperback 5.3972 -1.9937 1.06714
thorax -1.78666 -1.05517 2.65083
lowerneck 10.3697 -21.2476 -19.1179
upperneck 0.897202 -31.6329 24.736
head 5.72972 -16.2703 8.06435
rclavicle 6.21202e-014 -1.82882e-014
rhumerus -34.3199 37.874 -107.339
rradius 97.2544
rwrist 4.82207
rhand -13.9907 -28.3841
rfingers 7.12502
rthumb 12.1381 -58.012
lclavicle 6.21202e-014 -1.82882e-014
lhumerus -53.5801 0.532322 89.6196
lradius 113.276
lwrist 5.48143
lhand -11.4197 -32.5713
lfingers 7.12502
lthumb 14.6161 -3.10634
rfemur 1.50846 13.5841 17.4621
rtibia 10.8804
rfoot -13.0897 -5.94056
rtoes -15.2997
lfemur -3.921 9.46423 -11.2487
ltibia 33.8459
lfoot -26.3296 14.4431
ltoes -54.4721
390
root -0.0218735 18.3759 5.28244 -3.38303 -22.5489 -4.43917
lowerback 13.5717 -1.26963 -2.28889
upperback 5.44258 -1.9929 1.03496
thorax -1.76263 -1.05705 2.66385
lowerneck 10.3449 -21.2553 -19.0718
upperneck 0.884791 -31.6357 24.7444
head 5.72461 -16.2709 8.05955
rclavicle -3.72721e-014 1.78906e-014
rhumerus -34.2623 37.9899 -107.413
rradius 97.3063
rwrist 4.81254
rhand -14.1675 -28.4401
rfingers 7.12502
rthumb 11.9676 -58.078
lclavicle -3.72721e-014 1.78906e-014
lhumerus -53.6889 0.462697 89.6945
lradius 113.47
lwrist 5.4863
lhand -11.4652 -32.7394
lfingers 7.12502
lthumb 14.5724 -3.27128
rfemur 1.48002 13.8063 17.4167
rtibia 10.8623
rfoot -12.9618 -5.84497
rtoes -15.6486
lfemur -3.75975 9.66678 -11.2978
ltibia 33.7658
lfoot -26.383 14.5828
ltoes -54.4136
391
root -0.015892 18.374 5.28024 -3.44502 -22.9262 -4.41092
lowerback 13.6157 -1.26661 -2.3786
upperback 5.50528 -2.00328 1.01622
thorax -1.71717 -1.06549 2.69657
lowerneck 10.267 -21.2475 -19.0427
upperneck 0.883956 -31.6106 24.7321
head 5.72407 -16.2536 8.04922
rclavicle -6.65929e-015 4.77083e-015
rhumerus -34.1498 38.1616 -107.435
rradius 97.3483
rwrist 4.77865
rhand -14.3439 -28.4426
rfingers 7.12502
rthumb 11.7975 -58.0903
lclavicle -6.65929e-015 4.77083e-015
lhumerus -53.8087 0.497136 89.7488
lradius 113.75
lwrist 5.51008
lhand -11.4953 -32.7878
lfingers 7.12502
lthumb 14.5433 -3.3176
rfemur 1.42574 13.9543 17.3791
rtibia 10.9143
rfoot -12.8055 -5.67537
rtoes -15.8305
lfemur -3.59329 9.85413 -11.3327
ltibia 33.7088
lfoot -26.486 14.7291
ltoes -54.4431
392
root -0.0108368 18.3729 5.27825 -3.49223 -23.27 -4.39182
lowerback 13.6424 -1.2807 -2.47033
upperback 5.57348 -2.03554 1.01981
thorax -1.65422 -1.08559 2.75619
lowerneck 10.1757 -21.2147 -19.0805
upperneck 0.869703 -31.5551 24.7351
head 5.72857 -16.2211 8.05393
rclavicle 3.37934e-014 -2.0276e-014
rhumerus -34.0652 38.3487 -107.452
rradius 97.423
rwrist 4.749
rhand -14.2703 -28.357
rfingers 7.12502
rthumb 11.8685 -58.0006
lclavicle 3.37934e-014 -2.0276e-014
lhumerus -53.961 0.648599 89.8338
lradius 114.096
lwrist 5.54528
lhand -11.5163 -32.8055
lfingers 7.12502
lthumb 14.5231 -3.33379
rfemur 1.35635 14.1127 17.353
rtibia 10.982
rfoot -12.6963 -5.53478
rtoes -15.825
lfemur -3.46755 10.0249 -11.3493
ltibia 33.6828
lfoot -26.6075 14.8423
ltoes -54.4444
393
root -0.00786428 18.3724 5.27558 -3.49816 -23.5756 -4.40751
lowerback 13.6569 -1.29231 -2.54333
upperback 5.62021 -2.06163 1.02142
thorax -1.60831 -1.10168 2.80231
lowerneck 10.1289 -21.1796 -19.042
upperneck 0.817905 -31.4837 24.7205
head 5.69563 -16.1853 8.05866
rclavicle 6.20208e-014 -2.18663e-014
rhumerus -34.0347 38.4568 -107.534
rradius 97.4965
rwrist 4.6996
rhand -14.0969 -28.2743
rfingers 7.12502
rthumb 12.0357 -57.9083
lclavicle 6.20208e-014 -2.18663e-014
lhumerus -54.0799 0.764316 89.893
lradius 114.38
lwrist 5.58655
lhand -11.5678 -32.7697
lfingers 7.12502
lthumb 14.4735 -3.29445
rfemur 1.26622 14.3333 17.3766
rtibia 11.0562
rfoot -12.6481 -5.48416
rtoes -15.9701
lfemur -3.39427 10.2191 -11.3148
ltibia 33.6743
lfoot -26.719 14.8731
ltoes -54.3792
394
root -0.00462014 18.3715 5.27268 -3.48318 -23.8397 -4.40468
lowerback 13.6762 -1.30555 -2.60743
upperback 5.6276 -2.08902 0.99971
thorax -1.60744 -1.11643 2.82022
lowerneck 10.1359 -21.1415 -18.9553
upperneck 0.772997 -31.4092 24.685
head 5.64417 -16.1516 8.06163
rclavicle -6.61953e-014 1.31198e-014
rhumerus -34.0699 38.5375 -107.684
rradius 97.5477
rwrist 4.63328
rhand -14.0348 -28.3988
rfingers 7.12502
rthumb 12.0956 -58.0292
lclavicle -6.61953e-014 1.31198e-014
lhumerus -54.1996 0.84181 89.9163
lradius 114.622
lwrist 5.65541
lhand -11.6351 -32.7577
lfingers 7.12502
lthumb 14.4086 -3.27781
rfemur 1.13644 14.4981 17.3685
rtibia 11.1604
rfoot -12.5784 -5.40846
rtoes -16.237
lfemur -3.37019 10.3969 -11.3071
ltibia 33.6795
lfoot -26.811 14.9141
ltoes -54.3444
395
root -0.000694767 18.3701 5.27008 -3.45933 -24.0515 -4.34173
lowerback 13.6551 -1.32716 -2.68097
upperback 5.63347 -2.12814 0.950359
thorax -1.58641 -1.13702 2.81484
lowerneck 10.1406 -21.103 -18.8829
upperneck 0.745021 -31.3402 24.6607
head 5.60398 -16.1201 8.06657
rclavicle 3.72721e-014 -2.26615e-014
rhumerus -34.1189 38.6013 -107.84
rradius 97.6177
rwrist 4.63373
rhand -14.0277 -28.4991
rfingers 7.12502
rthumb 12.1024 -58.1291
lclavicle 3.72721e-014 -2.26615e-014
lhumerus -54.3206 0.900168 89.9366
lradius 114.846
lwrist 5.7255
lhand -11.6991 -32.7655
lfingers 7.12502
lthumb 14.3469 -3.28124
rfemur 0.955252 14.5864 17.2762
rtibia 11.3057
rfoot -12.5474 -5.25876
rtoes -16.1824
lfemur -3.40039 10.5168 -11.3844
ltibia 33.6991
lfoot -26.8821 14.9947
ltoes -54.3382
396
root 0.000753812 18.3689 5.2674 -3.45372 -24.2456 -4.24479
lowerback 13.6273 -1.33871 -2.80131
upperback 5.65967 -2.15992 0.891502
thorax -1.53933 -1.15534 2.82414
lowerneck 10.1334 -21.0462 -18.8489
upperneck 0.702339 -31.2563 24.7171
head 5.57944 -16.0823 8.0989
rclavicle 1.74931e-014 -1.23246e-014
rhumerus -34.1442 38.6253 -107.977
rradius 97.7103
rwrist 4.66439
rhand -13.9943 -28.5186
rfingers 7.12502
rthumb 12.1346 -58.1467
lclavicle 1.74931e-014 -1.23246e-014
lhumerus -54.386 0.936687 89.9541
lradius 115.028
lwrist 5.77536
lhand -11.7373 -32.7863
lfingers 7.12502
lthumb 14.3102 -3.29941
rfemur 0.771926 14.7151 17.1626
rtibia 11.4773
rfoot -12.5723 -5.12896
rtoes -15.9221
lfemur -3.43064 10.6335 -11.4886
ltibia 33.7316
lfoot -26.9359 15.0223
ltoes -54.2782
397
root 0.000605462 18.3683 5.26287 -3.43757 -24.4198 -4.16119
lowerback 13.6181 -1.34905 -2.94756
upperback 5.67259 -2.19309 0.854153
thorax -1.51402 -1.17437 2.87165
lowerneck 10.1258 -20.9715 -18.8688
upperneck 0.671642 -31.1591 24.7973
head 5.56877 -16.0379 8.14473
rclavicle -8.56762e-014 2.66371e-014
rhumerus -34.2019 38.6789 -108.103
rradius 97.8226
rwrist 4.65876
rhand -14.0575 -28.6117
rfingers 7.12502
rthumb 12.0737 -58.2433
lclavicle -8.56762e-014 2.66371e-014
lhumerus -54.3301 0.949779 89.9856
lradius 115.084
lwrist 5.79104
lhand -11.8548 -32.8943
lfingers 7.12502
lthumb 14.1969 -3.39947
rfemur 0.582635 14.8334 17.0693
rtibia 11.6392
rfoot -12.5314 -5.05719
rtoes -15.8328
lfemur -3.48276 10.747 -11.5738
ltibia 33.7681
lfoot -26.9665 15.0579
ltoes -54.2347
398
root 0.000554334 18.369 5.25691 -3.37657 -24.5495 -4.11305
lowerback 13.6109 -1.36383 -3.08298
upperback 5.65568 -2.22979 0.843907
thorax -1.5199 -1.19407 2.94261
lowerneck 10.1264 -20.9251 -18.886
upperneck 0.671121 -31.1003 24.821
head 5.56308 -16.0105 8.16618
rclavicle 1.71949e-014 -5.96354e-015
rhumerus -34.3123 38.7462 -108.225
rradius 97.9448
rwrist 4.69178
rhand -14.2374 -28.5685
rfingers 7.12502
rthumb 11.9002 -58.2103
lclavicle 1.71949e-014 -5.96354e-015
lhumerus -54.1326 0.914243 90.0462
lradius 114.964
lwrist 5.77691
lhand -12.0313 -33.0088
lfingers 7.12502
lthumb 14.0269 -3.50208
rfemur 0.361674 14.9048 16.9992
rtibia 11.7924
rfoot -12.4866 -4.99712
rtoes -15.7661
lfemur -3.58923 10.8206 -11.6358
ltibia 33.8024
lfoot -26.9445 15.1598
ltoes -54.2099
399
root -0.00012686 18.37 5.25347 -3.30394 -24.6616 -4.11087
lowerback 13.6293 -1.37681 -3.16715
upperback 5.61599 -2.25822 0.840221
thorax -1.56582 -1.20771 2.99185
lowerneck 10.1443 -20.8995 -18.8785
upperneck 0.720353 -31.0767 24.8144
head 5.56784 -15.9993 8.17015
rclavicle -5.11871e-014 2.18663e-014
rhumerus -34.4897 38.7585 -108.388
rradius 98.0814
rwrist 4.72333
rhand -14.3048 -28.4044
rfingers 7.12502
rthumb 11.8352 -58.05
lclavicle -5.11871e-014 2.18663e-014
lhumerus -54.0636 0.861291 90.1147
lradius 114.966
lwrist 5.82541
lhand -12.0659 -33.0339
lfingers 7.12502
lthumb 13.9935 -3.52488
rfemur 0.17477 15.023 16.9841
rtibia 11.9331
rfoot -12.5316 -4.96923
rtoes -15.5157
lfemur -3.67794 10.8762 -11.6486
ltibia 33.8442
lfoot -26.9267 15.2311
ltoes -54.1277
400
root -0.00213657 18.3709 5.25123 -3.25415 -24.7922 -4.09802
lowerback 13.6408 -1.3742 -3.26268
upperback 5.59261 -2.26763 0.830759
thorax -1.59203 -1.21264 3.03816
lowerneck 10.1394 -20.8672 -18.847
upperneck 0.78512 -31.0409 24.8077
head 5.57456 -15.9802 8.17141
rclavicle -1.82882e-014 -4.77083e-015
rhumerus -34.6196 38.772 -108.524
rradius 98.2383
rwrist 4.64766
rhand -14.1523 -28.4852
rfingers 7.12502
rthumb 11.9823 -58.1222
lclavicle -1.82882e-014 -4.77083e-015
lhumerus -54.1233 0.817271 90.1862
lradius 115.153
lwrist 5.91067
lhand -11.9937 -33.0202
lfingers 7.12502
lthumb 14.0631 -3.51598
rfemur 0.0468309 15.1758 16.9758
rtibia 12.0199
rfoot -12.5672 -5.01108
rtoes -15.472
lfemur -3.73835 10.9458 -11.6612
ltibia 33.9006
lfoot -26.9754 15.2599
ltoes -54.1025
401
root -0.0035515 18.3702 5.24807 -3.21538 -24.9441 -4.13841
lowerback 13.6637 -1.35844 -3.28632
upperback 5.60761 -2.25126 0.821623
thorax -1.58918 -1.20527 3.04015
lowerneck 10.1386 -20.8185 -18.7982
upperneck 0.763185 -30.9727 24.8731
head 5.558 -15.9498 8.20169
rclavicle -2.0773e-014 6.36111e-015
rhumerus -34.6268 38.7986 -108.586
rradius 98.3805
rwrist 4.56503
rhand -13.9751 -28.6884
rfingers 7.12502
rthumb 12.1531 -58.3154
lclavicle -2.0773e-014 6.36111e-015
lhumerus -54.1108 0.72573 90.2639
lradius 115.35
lwrist 5.94196
lhand -11.9533 -33.0791
lfingers 7.12502
lthumb 14.102 -3.5776
rfemur -0.0349949 15.2784 17.0266
rtibia 12.066
rfoot -12.5384 -5.03213
rtoes -15.6256
lfemur -3.76928 11.044 -11.6035
ltibia 33.9665
lfoot -27.0753 15.245
ltoes -54.1233
402
root -0.00290125 18.3684 5.24508 -3.15829 -25.0883 -4.27097
lowerback 13.7317 -1.3531 -3.18028
upperback 5.62329 -2.23352 0.823153
thorax -1.61508 -1.1951 2.98158
lowerneck 10.1469 -20.7684 -18.7357
upperneck 0.703649 -30.8939 24.9373
head 5.52382 -15.9161 8.23519
rclavicle 4.6615e-014 -2.14687e-014
rhumerus -34.6563 38.7936 -108.658
rradius 98.4852
rwrist 4.56591
rhand -14.1004 -28.6652
rfingers 7.12502
rthumb 12.0323 -58.2994
lclavicle 4.6615e-014 -2.14687e-014
lhumerus -54.1138 0.601608 90.3564
lradius 115.583
lwrist 5.93059
lhand -11.9759 -33.1163
lfingers 7.12502
lthumb 14.0802 -3.61329
rfemur -0.107966 15.3734 17.1676
rtibia 12.1318
rfoot -12.5058 -5.00455
rtoes -15.6011
lfemur -3.78332 11.1429 -11.4488
ltibia 34.0346
lfoot -27.1546 15.2166
ltoes -54.1084
403
root -0.00349809 18.3684 5.24188 -3.08906 -25.1979 -4.33136
lowerback 13.7727 -1.36339 -3.17929
upperback 5.61092 -2.2484 0.828182
thorax -1.64875 -1.20178 2.99023
lowerneck 10.1228 -20.7366 -18.6555
upperneck 0.713984 -30.8305 24.8689
head 5.4917 -15.8829 8.22035
rclavicle 3.84648e-014 -7.95139e-016
rhumerus -34.76 38.8028 -108.779
rradius 98.5747
rwrist 4.64709
rhand -14.262 -28.5043
rfingers 7.12502
rthumb 11.8765 -58.1475
lclavicle 3.84648e-014 -7.95139e-016
lhumerus -54.1344 0.548163 90.4712
lradius 115.757
lwrist 5.92216
lhand -12.0661 -33.1165
lfingers 7.12502
lthumb 13.9933 -3.60749
rfemur -0.23405 15.4779 17.2291
rtibia 12.2278
rfoot -12.5083 -4.99693
rtoes -15.5307
lfemur -3.84947 11.2058 -11.386
ltibia 34.095
lfoot -27.1454 15.2802
ltoes -54.1168
